PathFileType  4	(X/Y/Z) C:\Users\antoi\Documents\MyRepositories\mobilecap\ResultsAnalysis
DataRate	CameraRate	NumFrames	NumMarkers	Units	OrigDataRate	OrigDataStartFrame	OrigNumFrames
100.0	100.0	4	51	mm	100.0	874	1747
Frame#	Time	r_knee			r_shank_antsup			r_ankle			r_calc			r_5meta			r_toe			L_knee			L_shank_antsup			L_ankle			L_calc			L_5meta			L_toe			r_sh2			r_sh3			r_sh4			L_sh2			L_sh3			r_thigh1			r_thigh2			r_thigh3			r_thigh4			r_thigh5			L_thigh1			L_thigh2			L_thigh3			L_thigh4			r.ASIS			r.PSIS			L.ASIS			L.PSIS			C7			R_Shoulder			L_Shoulder			R_Sternum			L_Sternum			R_humerus			R_elbow_med			R_elbow_lat			R_forearm			R_wrist_radius			R_wrist_ulna			L_humerus			L_elbow_med			L_elbow_lat			L_forearm			L_wrist_radius			L_wrist_ulna			R_HJC			L_HJC			R_HJC_reg			L_HJC_reg			
		X1	Y1	Z1	X2	Y2	Z2	X3	Y3	Z3	X4	Y4	Z4	X5	Y5	Z5	X6	Y6	Z6	X7	Y7	Z7	X8	Y8	Z8	X9	Y9	Z9	X10	Y10	Z10	X11	Y11	Z11	X12	Y12	Z12	X13	Y13	Z13	X14	Y14	Z14	X15	Y15	Z15	X16	Y16	Z16	X17	Y17	Z17	X18	Y18	Z18	X19	Y19	Z19	X20	Y20	Z20	X21	Y21	Z21	X22	Y22	Z22	X23	Y23	Z23	X24	Y24	Z24	X25	Y25	Z25	X26	Y26	Z26	X27	Y27	Z27	X28	Y28	Z28	X29	Y29	Z29	X30	Y30	Z30	X31	Y31	Z31	X32	Y32	Z32	X33	Y33	Z33	X34	Y34	Z34	X35	Y35	Z35	X36	Y36	Z36	X37	Y37	Z37	X38	Y38	Z38	X39	Y39	Z39	X40	Y40	Z40	X41	Y41	Z41	X42	Y42	Z42	X43	Y43	Z43	X44	Y44	Z44	X45	Y45	Z45	X46	Y46	Z46	X47	Y47	Z47	X48	Y48	Z48	X49	Y49	Z49	X50	Y50	Z50	X51	Y51	Z51	

874	8.73000000	-198.04138	553.70762	-425.82502	-174.58470	428.08363	-420.75180	-288.43600	99.88294	-410.34832	-349.32078	66.32039	-461.22751	-165.30252	37.72519	-343.19353	-117.73141	58.62768	-411.14225	-196.87360	547.38786	-856.71867	-152.24314	439.78512	-858.25715	-255.21618	96.62051	-886.94804	-317.97025	67.96961	-844.73595	-110.93428	32.94367	-906.80320	-83.89230	60.10859	-836.67186	-180.73843	312.83303	-430.99134	-243.36614	427.00362	-383.32024	-243.14519	309.86536	-375.46998	-236.44464	451.09397	-889.97178	-227.67709	330.72057	-916.22764	-96.04242	789.64192	-452.34178	-98.40093	677.00734	-455.59025	-132.46942	652.23564	-402.95452	-188.23548	785.13284	-385.22774	-185.66194	666.69587	-396.02190	-141.27293	808.57275	-849.29910	-121.71800	673.21072	-859.40913	-251.98764	792.02012	-864.36877	-230.91527	655.22981	-865.06100	-131.21450	1051.67821	-487.85158	-339.68305	1081.61340	-566.71723	-140.45445	1044.64455	-755.09482	-345.42528	1080.99865	-664.69318	-248.13087	1585.15196	-611.03101	-177.64754	1500.12616	-426.42263	-172.81346	1531.88602	-788.00968	-117.52225	1494.24338	-591.71916	-118.54855	1492.57737	-634.02891	-176.96864	1331.76905	-352.41245	-281.46959	1120.89102	-371.30880	-234.15813	1147.13487	-295.06583	-114.53736	1202.84406	-396.74086	-31.23670	1228.56616	-477.85202	-7.53094	1194.13950	-468.32416	-172.86556	1363.96952	-880.89357	-280.80587	1153.54589	-884.88677	-215.05029	1177.95533	-943.34573	-125.94282	1225.84736	-810.52249	-37.78827	1232.04834	-731.38102	-19.53161	1191.72309	-747.10361	-214.13132	970.27978	-519.81646	-219.06189	954.73087	-732.58401	-203.10054	967.53890	-521.28676	-213.42934	966.43317	-697.52726	
875	8.74000000	-198.64421	553.67437	-425.35594	-174.81841	428.04878	-420.59156	-288.49625	99.84473	-410.37580	-349.32882	66.33181	-461.30850	-165.28963	37.73353	-343.21101	-117.76454	58.64338	-411.17211	-197.04487	547.21037	-857.17403	-152.14257	439.60454	-858.41746	-255.17544	96.58204	-887.02037	-317.96668	67.95147	-844.76097	-110.93628	32.96061	-906.80933	-83.90409	60.10611	-836.64449	-180.94820	312.75556	-430.88846	-243.64274	426.99807	-383.13195	-243.60321	309.97200	-374.93466	-236.30620	450.92101	-890.24002	-227.57620	330.69710	-916.69010	-98.11953	789.79331	-452.27700	-99.88277	677.34181	-454.95458	-133.93622	652.25872	-402.78700	-190.30563	785.13625	-385.07700	-187.24229	666.53020	-395.82922	-142.87457	808.51490	-849.52210	-122.62174	673.31250	-859.79048	-253.49446	791.30443	-864.75852	-231.74972	654.69686	-865.57110	-133.63339	1051.11557	-488.04448	-341.84940	1082.76203	-566.88586	-142.73806	1043.59594	-755.04312	-347.58817	1081.84981	-665.05819	-245.55800	1585.25228	-611.70097	-176.07728	1499.92916	-427.03047	-170.42092	1531.38043	-788.33976	-115.72202	1493.43496	-592.16368	-117.20218	1491.62116	-634.35640	-176.48702	1331.73955	-352.83909	-281.78327	1121.15904	-371.36761	-234.46427	1147.36201	-295.40976	-114.47497	1202.51514	-396.96177	-30.79796	1227.57941	-477.92980	-7.27448	1193.08461	-468.16570	-171.27032	1363.50293	-881.22448	-280.45229	1153.71331	-885.47539	-214.41569	1177.71611	-943.81930	-125.19358	1224.96964	-810.69863	-37.12257	1230.70632	-731.43798	-19.11056	1190.26827	-747.12593	-217.26175	970.39298	-519.75330	-222.19665	954.39658	-732.48728	-206.25334	967.80713	-521.16290	-216.54655	966.17239	-697.24609	
876	8.75000000	-199.19476	553.40913	-424.83144	-174.97891	427.95174	-420.33206	-288.52373	99.81731	-410.38899	-349.33403	66.32421	-461.33224	-165.30339	37.72365	-343.18360	-117.78947	58.67184	-411.17987	-197.03553	546.96631	-857.65842	-151.92149	439.39614	-858.54644	-255.11882	96.56722	-887.14424	-317.96494	67.95234	-844.76318	-110.93235	32.99294	-906.79497	-83.90851	60.13101	-836.61994	-181.08057	312.59216	-430.65548	-243.81502	426.96861	-382.91135	-244.05614	310.07703	-374.36694	-235.97427	450.72007	-890.58231	-227.41274	330.70743	-917.20050	-100.28204	790.03571	-452.05721	-101.48577	677.40006	-455.01177	-135.42602	652.43251	-402.46867	-192.53187	785.05341	-385.03507	-188.90238	666.31641	-395.71785	-144.60751	808.46504	-849.66475	-123.57167	673.36787	-859.84907	-255.01172	790.53480	-865.20896	-232.53514	654.07504	-866.06363	-136.25056	1050.52574	-488.17532	-343.96537	1083.80801	-567.19980	-145.25308	1042.50800	-754.83165	-349.75323	1082.60181	-665.46842	-242.82553	1585.26633	-612.42395	-174.38774	1499.64382	-427.56495	-167.86601	1530.78348	-788.74114	-113.95984	1492.39605	-592.44260	-115.51586	1490.54830	-634.75719	-175.87227	1331.63804	-353.28183	-282.15024	1121.36405	-371.77728	-234.76415	1147.49685	-295.74540	-114.34581	1201.94919	-397.22227	-30.25825	1226.44917	-477.97296	-6.95992	1191.80650	-468.05890	-169.52709	1362.88199	-881.42256	-280.04842	1153.87069	-886.08369	-213.67188	1177.38731	-944.25572	-124.34574	1224.06378	-810.98120	-36.37807	1229.27015	-731.47799	-18.64229	1188.79097	-747.20809	-220.51612	970.46196	-519.66040	-225.37422	953.98981	-732.35993	-209.48922	968.05946	-520.93236	-219.84733	965.90109	-696.78721	
877	8.76000000	-199.62060	552.96710	-424.49408	-175.00711	427.69574	-420.02277	-288.54534	99.83456	-410.40018	-349.34808	66.28921	-461.31494	-165.31540	37.74556	-343.15274	-117.78476	58.71967	-411.16137	-196.79528	546.79303	-858.33989	-151.54402	439.26115	-858.97719	-255.04605	96.60839	-887.26861	-317.96927	67.97808	-844.73614	-110.92208	33.04366	-906.77008	-83.89682	60.16824	-836.59720	-181.09647	312.39971	-430.33490	-243.92949	426.64089	-382.72336	-244.28318	310.08971	-373.88597	-235.43606	450.53208	-890.97541	-227.07085	330.61812	-917.68169	-102.54781	790.33054	-451.82932	-103.15037	677.39015	-455.26001	-136.87586	652.63057	-402.07428	-194.90721	784.84012	-385.05060	-190.50301	666.15229	-395.51553	-146.45279	808.31696	-849.61328	-124.50491	673.26991	-859.51494	-256.57547	789.78998	-865.79173	-233.26883	653.35747	-866.62954	-139.04877	1049.74828	-488.38829	-346.25836	1084.90893	-567.56720	-148.11999	1041.49507	-755.02749	-352.02104	1083.47586	-665.82024	-239.89005	1585.16817	-613.13730	-172.58007	1499.24046	-428.12841	-165.14658	1530.07507	-789.18867	-112.22332	1491.13488	-592.66090	-113.37209	1489.29500	-635.22852	-175.11758	1331.36038	-353.80805	-282.58051	1121.74925	-372.34493	-235.07651	1147.52901	-296.13562	-114.15575	1201.09467	-397.59902	-29.65188	1225.07999	-478.08425	-6.56133	1190.31349	-468.10644	-167.70235	1362.20096	-881.71707	-279.56110	1153.89028	-886.72678	-212.82987	1176.96623	-944.73672	-123.45246	1223.07424	-811.22818	-35.57632	1227.70459	-731.59342	-18.12903	1187.09325	-747.33523	-223.97739	970.43833	-519.80071	-228.93169	953.70751	-732.47806	-213.11097	968.16056	-520.94299	-223.42542	965.59569	-696.78966	
